<svg xmlns="http://www.w3.org/2000/svg" version="1.1" xmlns:xlink="http://www.w3.org/1999/xlink" width="512" height="512" x="0" y="0" viewBox="0 0 100 100" style="enable-background:new 0 0 512 512" xml:space="preserve"><g><linearGradient id="a"><stop stop-opacity="1" stop-color="#97ffb1" offset="0"></stop><stop stop-opacity="1" stop-color="#18a569" offset="1"></stop></linearGradient><linearGradient xlink:href="#a" id="b" x1="-14.485" x2="77.531" y1="8.32" y2="109.161" gradientUnits="userSpaceOnUse"></linearGradient><linearGradient xlink:href="#a" id="c" x1="8.788" x2="100.805" y1="-12.917" y2="87.924" gradientUnits="userSpaceOnUse"></linearGradient><linearGradient xlink:href="#a" id="d" x1="20.575" x2="112.592" y1="-23.673" y2="77.168" gradientUnits="userSpaceOnUse"></linearGradient><path fill="url(#b)" d="M27.804 33.891H8.283A5.783 5.783 0 0 0 2.5 39.674v43.783a5.783 5.783 0 0 0 5.783 5.782h60.304a5.783 5.783 0 0 0 5.783-5.782V49.174a5.783 5.783 0 0 0-5.783-5.783h-32.32L32.93 37a5.783 5.783 0 0 0-5.127-3.108z" opacity="1" data-original="url(#b)"></path><path fill="url(#c)" d="M34.826 22.326H18.918a5.783 5.783 0 0 0-5.782 5.783H32.65c1.334 0 2.558.741 3.175 1.924l3.952 7.576H74.37a5.783 5.783 0 0 1 5.782 5.782v35.316a5.783 5.783 0 0 0 5.783-5.783V37.609a5.783 5.783 0 0 0-5.783-5.783H43.288l-3.335-6.392a5.783 5.783 0 0 0-5.127-3.108z" opacity="1" data-original="url(#c)"></path><path fill="url(#d)" d="m50.31 20.26-3.335-6.391a5.783 5.783 0 0 0-5.127-3.108H29.45a5.783 5.783 0 0 0-5.783 5.782h16.003c1.335 0 2.558.742 3.176 1.925l3.952 7.575h39.136a5.783 5.783 0 0 1 5.782 5.783v36.245a5.783 5.783 0 0 0 5.783-5.783V26.043a5.783 5.783 0 0 0-5.783-5.782z" opacity="1" data-original="url(#d)"></path></g></svg>