<svg xmlns="http://www.w3.org/2000/svg" version="1.1" xmlns:xlink="http://www.w3.org/1999/xlink" width="512" height="512" x="0" y="0" viewBox="0 0 24 24" style="enable-background:new 0 0 512 512" xml:space="preserve" class=""><g><path fill="#22c55e" fill-rule="evenodd" d="M13.707 2.293A1 1 0 0 0 13 2H7a3 3 0 0 0-3 3v14a3 3 0 0 0 3 3h4a1 1 0 1 0 0-2H7a1 1 0 0 1-1-1V5a1 1 0 0 1 1-1h5v3a3 3 0 0 0 3 3h3v1a1 1 0 1 0 2 0V9a1 1 0 0 0-.293-.707zM16.586 8H15a1 1 0 0 1-1-1V5.414zM17 14a1 1 0 0 0-1 1v1.5h-1.5a1 1 0 1 0 0 2H16V20a1 1 0 1 0 2 0v-1.5h1.5a1 1 0 1 0 0-2H18V15a1 1 0 0 0-1-1z" clip-rule="evenodd" opacity="1" data-original="#000000" class=""></path></g></svg>