<svg xmlns="http://www.w3.org/2000/svg" version="1.1" width="512" height="512" x="0" y="0" viewBox="0 0 32 32" style="enable-background:new 0 0 512 512" xml:space="preserve" fill-rule="evenodd"><defs><linearGradient id="rainbow-pdf" x1="0%" y1="0%" x2="100%" y2="100%"><stop offset="0%" stop-color="#FF0000"/><stop offset="16%" stop-color="#FF8000"/><stop offset="33%" stop-color="#FFD700"/><stop offset="50%" stop-color="#22C55E"/><stop offset="66%" stop-color="#0099FF"/><stop offset="83%" stop-color="#6633FF"/><stop offset="100%" stop-color="#CC33FF"/></linearGradient></defs><g><path d="M24 25h2a1 1 0 0 0 0-2h-2v-1h2.5a1 1 0 0 0 0-2H23a1 1 0 0 0-1 1v6a1 1 0 0 0 2 0zM14 20a1 1 0 0 0-1 1v6a1 1 0 0 0 1 1h2a4 4 0 0 0 4-4v-.002A3.998 3.998 0 0 0 16.002 20H14zm1 2h1.002c1.103 0 1.998.895 1.998 1.998V24a2 2 0 0 1-2 2h-1zM7 26h1.002A2.998 2.998 0 0 0 11 23.002v-.004A2.998 2.998 0 0 0 8.002 20H6a1 1 0 0 0-1 1v6a1 1 0 0 0 2 0zm0-2h1.002A.998.998 0 0 0 9 23.002v-.004A.998.998 0 0 0 8.002 22H7zM17 5v5a3 3 0 0 0 3 3h5v4a1 1 0 0 0 2 0v-5a.997.997 0 0 0-.293-.707l-8-8A.997.997 0 0 0 18 3H8a3 3 0 0 0-3 3v11a1 1 0 0 0 2 0V6a1 1 0 0 1 1-1zm2 1.414V10a1 1 0 0 0 1 1h3.586z" fill="url(#rainbow-pdf)" opacity="1"/></g></svg>